<mxfile host="app.diagrams.net" modified="2024-01-05T16:17:23.825Z" agent="Mozilla/5.0 (Windows NT 10.0; Win64; x64) AppleWebKit/537.36 (KHTML, like Gecko) Chrome/120.0.0.0 Safari/537.36" etag="o6vMMBu-ZOKYE06GQ4Pd" version="22.1.16" type="github">
  <diagram name="Page-1" id="74e2e168-ea6b-b213-b513-2b3c1d86103e">
    <mxGraphModel dx="2074" dy="1098" grid="1" gridSize="10" guides="1" tooltips="1" connect="1" arrows="1" fold="1" page="1" pageScale="1" pageWidth="1100" pageHeight="850" background="none" math="0" shadow="0">
      <root>
        <mxCell id="0" />
        <mxCell id="1" parent="0" />
        <mxCell id="3bbG5r7rnCi8b4ATlvxT-8" value="" style="rounded=0;whiteSpace=wrap;html=1;" vertex="1" parent="1">
          <mxGeometry x="60" y="580" width="160" height="220" as="geometry" />
        </mxCell>
        <mxCell id="77e6c97f196da883-1" value="NBA PROJECT DIAGRAM" style="swimlane;html=1;childLayout=stackLayout;startSize=20;rounded=0;shadow=0;labelBackgroundColor=none;strokeWidth=1;fontFamily=Verdana;fontSize=8;align=center;" parent="1" vertex="1">
          <mxGeometry x="450" y="140" width="1110" height="430" as="geometry" />
        </mxCell>
        <mxCell id="77e6c97f196da883-2" value="Lane 1" style="swimlane;html=1;startSize=20;" parent="77e6c97f196da883-1" vertex="1">
          <mxGeometry y="20" width="150" height="410" as="geometry" />
        </mxCell>
        <mxCell id="77e6c97f196da883-8" value="&lt;font style=&quot;font-size: 12px;&quot;&gt;WEB SCRAPING&lt;br&gt;(Python)&lt;/font&gt;" style="rounded=1;whiteSpace=wrap;html=1;shadow=0;labelBackgroundColor=none;strokeWidth=1;fontFamily=Verdana;fontSize=8;align=center;fillColor=#d5e8d4;strokeColor=#82b366;" parent="77e6c97f196da883-2" vertex="1">
          <mxGeometry x="30" y="125" width="110" height="240" as="geometry" />
        </mxCell>
        <mxCell id="77e6c97f196da883-3" value="Lane 2" style="swimlane;html=1;startSize=20;" parent="77e6c97f196da883-1" vertex="1">
          <mxGeometry x="150" y="20" width="160" height="410" as="geometry" />
        </mxCell>
        <mxCell id="77e6c97f196da883-11" value="&lt;font style=&quot;font-size: 12px;&quot;&gt;LOCAL FOLDERS&lt;br&gt;&lt;/font&gt;(.html files)&lt;br&gt;&lt;br&gt;/games&lt;br&gt;/standings&lt;br&gt;/teams" style="rounded=1;whiteSpace=wrap;html=1;shadow=0;labelBackgroundColor=none;strokeWidth=1;fontFamily=Verdana;fontSize=8;align=center;fillColor=#fff2cc;strokeColor=#d6b656;" parent="77e6c97f196da883-3" vertex="1">
          <mxGeometry x="30" y="65" width="110" height="85" as="geometry" />
        </mxCell>
        <mxCell id="77e6c97f196da883-17" value="&lt;font style=&quot;font-size: 12px;&quot;&gt;EXCTRATING&lt;br&gt;+ &lt;br&gt;CLEANING DATA&lt;/font&gt;" style="rounded=1;whiteSpace=wrap;html=1;shadow=0;labelBackgroundColor=none;strokeWidth=1;fontFamily=Verdana;fontSize=8;align=center;fillColor=#d5e8d4;strokeColor=#82b366;" parent="77e6c97f196da883-3" vertex="1">
          <mxGeometry x="30" y="270" width="100" height="60" as="geometry" />
        </mxCell>
        <mxCell id="77e6c97f196da883-27" style="edgeStyle=orthogonalEdgeStyle;rounded=1;html=1;labelBackgroundColor=none;startArrow=none;startFill=0;startSize=5;endArrow=classicThin;endFill=1;endSize=5;jettySize=auto;orthogonalLoop=1;strokeWidth=1;fontFamily=Verdana;fontSize=8;entryX=0.5;entryY=0;entryDx=0;entryDy=0;" parent="77e6c97f196da883-3" source="77e6c97f196da883-11" target="77e6c97f196da883-17" edge="1">
          <mxGeometry relative="1" as="geometry">
            <Array as="points">
              <mxPoint x="80" y="270" />
            </Array>
          </mxGeometry>
        </mxCell>
        <mxCell id="77e6c97f196da883-4" value="Lane 3" style="swimlane;html=1;startSize=20;" parent="77e6c97f196da883-1" vertex="1">
          <mxGeometry x="310" y="20" width="225" height="410" as="geometry" />
        </mxCell>
        <mxCell id="0vmomIXjjfcit_l2Lc3G-2" value="GOOGLE DRIVE FOLDER&amp;nbsp;&lt;br&gt;&lt;br&gt;&lt;br&gt;NBA_DB(Google sheet)&lt;br&gt;NBA_PLAYERS(Google sheet)&lt;br&gt;NBA_INJURIES(Google sheet)&lt;br&gt;NBA_CALENDAR(Google sheet)&lt;br&gt;" style="ellipse;whiteSpace=wrap;html=1;aspect=fixed;fillColor=#dae8fc;strokeColor=#6c8ebf;" parent="77e6c97f196da883-4" vertex="1">
          <mxGeometry x="8.75" y="130" width="207.5" height="207.5" as="geometry" />
        </mxCell>
        <mxCell id="77e6c97f196da883-5" value="Lane 4" style="swimlane;html=1;startSize=20;" parent="77e6c97f196da883-1" vertex="1">
          <mxGeometry x="535" y="20" width="155" height="410" as="geometry" />
        </mxCell>
        <mxCell id="77e6c97f196da883-14" value="&lt;font style=&quot;&quot;&gt;&lt;font style=&quot;font-size: 12px;&quot;&gt;MACHINE LEARNING&lt;/font&gt;&lt;br&gt;&lt;span style=&quot;font-size: 10px;&quot;&gt;(Python)&lt;/span&gt;&lt;/font&gt;" style="rounded=1;whiteSpace=wrap;html=1;shadow=0;labelBackgroundColor=none;strokeWidth=1;fontFamily=Verdana;fontSize=8;align=center;fillColor=#d5e8d4;strokeColor=#82b366;" parent="77e6c97f196da883-5" vertex="1">
          <mxGeometry x="20" y="78.75" width="100" height="60" as="geometry" />
        </mxCell>
        <mxCell id="0vmomIXjjfcit_l2Lc3G-8" value="&lt;font style=&quot;font-size: 12px;&quot;&gt;TEST ERROR&lt;/font&gt;&lt;font style=&quot;font-size: 10px;&quot;&gt; (Python)&lt;/font&gt;" style="rounded=1;whiteSpace=wrap;html=1;shadow=0;labelBackgroundColor=none;strokeWidth=1;fontFamily=Verdana;fontSize=8;align=center;fillColor=#d5e8d4;strokeColor=#82b366;" parent="77e6c97f196da883-5" vertex="1">
          <mxGeometry x="20" y="290" width="100" height="60" as="geometry" />
        </mxCell>
        <mxCell id="77e6c97f196da883-6" value="Lane 5" style="swimlane;html=1;startSize=20;" parent="77e6c97f196da883-1" vertex="1">
          <mxGeometry x="690" y="20" width="220" height="410" as="geometry" />
        </mxCell>
        <mxCell id="0vmomIXjjfcit_l2Lc3G-7" value="&lt;font style=&quot;&quot;&gt;&lt;font style=&quot;font-size: 12px;&quot;&gt;GOOGLE DRIVE FOLDER&amp;nbsp;&lt;/font&gt;&lt;br&gt;&lt;br&gt;&lt;br&gt;&lt;font style=&quot;font-size: 10px;&quot;&gt;impact_by_position(Google sheet)&lt;br&gt;projection_fantasy_score(Google sheet)&lt;br&gt;projection_stats(Google sheet)&lt;br style=&quot;border-color: var(--border-color);&quot;&gt;deviation_players(Google sheet)&lt;br&gt;test_MAE(Google sheet)&lt;/font&gt;&lt;/font&gt;" style="ellipse;whiteSpace=wrap;html=1;aspect=fixed;fillColor=#dae8fc;strokeColor=#6c8ebf;" parent="77e6c97f196da883-6" vertex="1">
          <mxGeometry x="20" y="130" width="188.75" height="188.75" as="geometry" />
        </mxCell>
        <mxCell id="77e6c97f196da883-7" value="Lane 6" style="swimlane;html=1;startSize=20;" parent="77e6c97f196da883-1" vertex="1">
          <mxGeometry x="910" y="20" width="200" height="410" as="geometry" />
        </mxCell>
        <mxCell id="77e6c97f196da883-20" value="&lt;font style=&quot;font-size: 12px;&quot;&gt;POWER BI&lt;/font&gt;" style="rhombus;whiteSpace=wrap;html=1;rounded=0;shadow=0;labelBackgroundColor=none;strokeWidth=1;fontFamily=Verdana;fontSize=8;align=center;fillColor=#a0522d;strokeColor=#6D1F00;fontColor=#ffffff;" parent="77e6c97f196da883-7" vertex="1">
          <mxGeometry x="30" y="139.38" width="160" height="170" as="geometry" />
        </mxCell>
        <mxCell id="0vmomIXjjfcit_l2Lc3G-1" value="" style="edgeStyle=orthogonalEdgeStyle;rounded=1;html=1;labelBackgroundColor=none;startArrow=none;startFill=0;startSize=5;endArrow=classicThin;endFill=1;endSize=5;jettySize=auto;orthogonalLoop=1;strokeWidth=1;fontFamily=Verdana;fontSize=8;entryX=0;entryY=0.5;entryDx=0;entryDy=0;" parent="77e6c97f196da883-1" source="77e6c97f196da883-8" target="77e6c97f196da883-11" edge="1">
          <mxGeometry relative="1" as="geometry">
            <mxPoint x="200" y="360" as="sourcePoint" />
            <mxPoint x="310" y="185" as="targetPoint" />
            <Array as="points">
              <mxPoint x="75" y="115" />
            </Array>
          </mxGeometry>
        </mxCell>
        <mxCell id="0vmomIXjjfcit_l2Lc3G-6" style="edgeStyle=orthogonalEdgeStyle;rounded=0;orthogonalLoop=1;jettySize=auto;html=1;entryX=0;entryY=0.5;entryDx=0;entryDy=0;" parent="77e6c97f196da883-1" source="77e6c97f196da883-17" target="0vmomIXjjfcit_l2Lc3G-2" edge="1">
          <mxGeometry relative="1" as="geometry" />
        </mxCell>
        <mxCell id="0vmomIXjjfcit_l2Lc3G-9" style="edgeStyle=orthogonalEdgeStyle;rounded=0;orthogonalLoop=1;jettySize=auto;html=1;entryX=0;entryY=0.5;entryDx=0;entryDy=0;" parent="77e6c97f196da883-1" source="0vmomIXjjfcit_l2Lc3G-2" target="0vmomIXjjfcit_l2Lc3G-8" edge="1">
          <mxGeometry relative="1" as="geometry" />
        </mxCell>
        <mxCell id="0vmomIXjjfcit_l2Lc3G-11" style="edgeStyle=orthogonalEdgeStyle;rounded=0;orthogonalLoop=1;jettySize=auto;html=1;entryX=0;entryY=0.5;entryDx=0;entryDy=0;" parent="77e6c97f196da883-1" source="0vmomIXjjfcit_l2Lc3G-8" target="0vmomIXjjfcit_l2Lc3G-7" edge="1">
          <mxGeometry relative="1" as="geometry" />
        </mxCell>
        <mxCell id="0vmomIXjjfcit_l2Lc3G-12" style="edgeStyle=orthogonalEdgeStyle;rounded=0;orthogonalLoop=1;jettySize=auto;html=1;entryX=0;entryY=0.5;entryDx=0;entryDy=0;" parent="77e6c97f196da883-1" source="0vmomIXjjfcit_l2Lc3G-2" target="77e6c97f196da883-14" edge="1">
          <mxGeometry relative="1" as="geometry" />
        </mxCell>
        <mxCell id="0vmomIXjjfcit_l2Lc3G-13" style="edgeStyle=orthogonalEdgeStyle;rounded=0;orthogonalLoop=1;jettySize=auto;html=1;entryX=0;entryY=0.5;entryDx=0;entryDy=0;" parent="77e6c97f196da883-1" source="77e6c97f196da883-14" target="0vmomIXjjfcit_l2Lc3G-7" edge="1">
          <mxGeometry relative="1" as="geometry" />
        </mxCell>
        <mxCell id="0vmomIXjjfcit_l2Lc3G-14" style="edgeStyle=orthogonalEdgeStyle;rounded=0;orthogonalLoop=1;jettySize=auto;html=1;entryX=0;entryY=0.5;entryDx=0;entryDy=0;" parent="77e6c97f196da883-1" source="0vmomIXjjfcit_l2Lc3G-7" target="77e6c97f196da883-20" edge="1">
          <mxGeometry relative="1" as="geometry" />
        </mxCell>
        <mxCell id="3bbG5r7rnCi8b4ATlvxT-1" value="PYTHON SCRIPT" style="rounded=0;whiteSpace=wrap;html=1;fillColor=#d5e8d4;strokeColor=#82b366;" vertex="1" parent="1">
          <mxGeometry x="70" y="630" width="120" height="40" as="geometry" />
        </mxCell>
        <mxCell id="3bbG5r7rnCi8b4ATlvxT-2" value="LOCAL FOLDER" style="rounded=0;whiteSpace=wrap;html=1;fillColor=#ffe6cc;strokeColor=#d79b00;" vertex="1" parent="1">
          <mxGeometry x="70" y="680" width="120" height="40" as="geometry" />
        </mxCell>
        <mxCell id="3bbG5r7rnCi8b4ATlvxT-3" value="GOOGLE DRIVE FOLDER" style="rounded=0;whiteSpace=wrap;html=1;fillColor=#dae8fc;strokeColor=#6c8ebf;" vertex="1" parent="1">
          <mxGeometry x="70" y="730" width="120" height="40" as="geometry" />
        </mxCell>
        <mxCell id="3bbG5r7rnCi8b4ATlvxT-4" value="&lt;font style=&quot;font-size: 16px;&quot;&gt;LEGEND&amp;nbsp;&lt;/font&gt;" style="text;html=1;align=center;verticalAlign=middle;resizable=0;points=[];autosize=1;strokeColor=none;fillColor=none;" vertex="1" parent="1">
          <mxGeometry x="70" y="590" width="90" height="30" as="geometry" />
        </mxCell>
        <mxCell id="3bbG5r7rnCi8b4ATlvxT-7" value="" style="whiteSpace=wrap;html=1;aspect=fixed;" vertex="1" parent="1">
          <mxGeometry x="1010" y="510" width="80" height="80" as="geometry" />
        </mxCell>
      </root>
    </mxGraphModel>
  </diagram>
</mxfile>
